<svg xmlns="http://www.w3.org/2000/svg" width="40.398" height="50.952" viewBox="0 0 40.398 50.952">
  <g id="solution_3_" data-name="solution (3)" transform="translate(-9.014 -3)">
    <path id="Path_8" data-name="Path 8" d="M51.691,3h-12.3a.879.879,0,0,0-.878.878V7.392H36.757a1.757,1.757,0,0,0,0,3.514h1.757V15.3h3.514a3.514,3.514,0,0,1,7.028,0h2.635a.879.879,0,0,0,.878-.878V3.878A.879.879,0,0,0,51.691,3Z" transform="translate(-3.158)" fill="#fff"/>
    <path id="Path_9" data-name="Path 9" d="M26.4,60.514A4.4,4.4,0,0,0,30.708,57H22.1A4.4,4.4,0,0,0,26.4,60.514Z" transform="translate(-1.59 -6.562)" fill="#fff"/>
    <path id="Path_10" data-name="Path 10" d="M17.791,19.542A3.517,3.517,0,0,1,21.3,23.056h3.514V20.42a3.514,3.514,0,0,1,0-7.028V9h-.6A15.234,15.234,0,0,0,9.05,23.056h5.227A3.517,3.517,0,0,1,17.791,19.542Z" transform="translate(-0.004 -0.729)" fill="#fff"/>
    <path id="Path_11" data-name="Path 11" d="M18.665,44.083h6.149V37.056a3.514,3.514,0,0,1,0-7.028V26.514H19.543V24.757a1.757,1.757,0,0,0-3.514,0v1.757H9.014a15.152,15.152,0,0,0,5.568,11.177l4.083,3.341Z" transform="translate(0 -2.43)" fill="#fff"/>
    <path id="Path_12" data-name="Path 12" d="M37.3,24.757a1.757,1.757,0,0,0-3.514,0v1.757H28.514v5.271H26.757a1.757,1.757,0,0,0,0,3.514h1.757v8.785h4.392V41.032l4.083-3.341a15.155,15.155,0,0,0,5.568-11.177H37.3Z" transform="translate(-1.943 -2.43)" fill="#fff"/>
    <path id="Path_13" data-name="Path 13" d="M31.42,53H20.878a.878.878,0,0,0,0,1.757H31.42a.878.878,0,0,0,0-1.757Z" transform="translate(-1.335 -6.076)" fill="#fff"/>
    <path id="Path_14" data-name="Path 14" d="M32.934,49H18.878a.878.878,0,0,0,0,1.757H32.934a.878.878,0,0,0,0-1.757Z" transform="translate(-1.092 -5.59)" fill="#fff"/>
  </g>
</svg>
