<svg xmlns="http://www.w3.org/2000/svg" width="50.952" height="50.952" viewBox="0 0 50.952 50.952">
  <g id="API" transform="translate(-1.987 -2)">
    <path id="Path_27" data-name="Path 27" d="M31,20h3.4v1.7H31Z" transform="translate(-4.381 -2.718)" fill="#fff"/>
    <path id="Path_28" data-name="Path 28" d="M21.849,20l-.289,2.547h2.445L23.716,20Z" transform="translate(-2.955 -2.718)" fill="#fff"/>
    <path id="Path_29" data-name="Path 29" d="M49.543,46.149A3.4,3.4,0,0,0,46.266,48.7H43.6a.849.849,0,0,1-.849-.849V41.9h1.817a3.4,3.4,0,1,0,0-1.7H42.751V27.47H45.3a7.641,7.641,0,0,0,0-15.282H43.549A7.622,7.622,0,0,0,31.51,6.839,12.72,12.72,0,0,0,9.053,12.222,7.635,7.635,0,0,0,9.639,27.47h2.547V38.508H10.369a3.4,3.4,0,1,0,0,1.7h1.817v7.641a.849.849,0,0,1-.849.849H8.671a3.4,3.4,0,1,0,0,1.7h2.666a2.555,2.555,0,0,0,2.547-2.547V40.206h6.792a2.555,2.555,0,0,0,2.547-2.547V27.47h3.4v18.8a3.4,3.4,0,1,0,1.7,0V27.47h3.4V39.357A2.555,2.555,0,0,0,34.261,41.9h6.792v5.943A2.555,2.555,0,0,0,43.6,50.394h2.666a3.391,3.391,0,1,0,3.277-4.245Zm-28.017-8.49a.849.849,0,0,1-.849.849H13.884V27.47h7.641Zm.008-13.491-.3-2.64H18.418l-.3,2.64-1.681-.187.849-7.641a.84.84,0,0,1,.841-.756h3.4a.84.84,0,0,1,.841.756l.849,7.641Zm10.18-4.338a.849.849,0,0,1-.849.849H26.619v3.4h-1.7V16.433a.849.849,0,0,1,.849-.849h5.094a.849.849,0,0,1,.849.849Zm1.7,2.547h1.7V17.282h-1.7v-1.7h5.094v1.7h-1.7v5.094h1.7v1.7H33.412Zm7.641,17.829H34.261a.849.849,0,0,1-.849-.849V27.47h7.641Z" transform="translate(0 0)" fill="#fff"/>
  </g>
</svg>
