<svg xmlns="http://www.w3.org/2000/svg" width="51" height="51" viewBox="0 0 51 51">
  <g id="statistics" transform="translate(0 0)">
    <path id="Path_20" data-name="Path 20" d="M35.482,23.906a4.46,4.46,0,0,0,3.1-1.26l4.423,2.211a4.39,4.39,0,0,0-.055.543,4.482,4.482,0,1,0,8.965,0,4.428,4.428,0,0,0-.449-1.92l6-6a4.428,4.428,0,0,0,1.92.449,4.488,4.488,0,0,0,4.482-4.482,4.415,4.415,0,0,0-.224-1.328l5.213-3.909a4.479,4.479,0,1,0-2-3.728,4.415,4.415,0,0,0,.224,1.328L61.87,9.719a4.463,4.463,0,0,0-6.514,5.649l-6,6a4.4,4.4,0,0,0-5.023.811L39.91,19.967a4.39,4.39,0,0,0,.055-.543,4.482,4.482,0,1,0-4.482,4.482Zm0,0" transform="translate(-27.912)" fill="#fff"/>
    <path id="Path_21" data-name="Path 21" d="M49.506,183.07H47.912V151.494A1.494,1.494,0,0,0,46.418,150H40.441a1.494,1.494,0,0,0-1.494,1.494V183.07H35.959V160.459a1.494,1.494,0,0,0-1.494-1.494H28.488a1.494,1.494,0,0,0-1.494,1.494V183.07H24.006V172.412a1.494,1.494,0,0,0-1.494-1.494H16.535a1.494,1.494,0,0,0-1.494,1.494V183.07H12.053V166.436a1.494,1.494,0,0,0-1.494-1.494H4.582a1.494,1.494,0,0,0-1.494,1.494V183.07H1.494a1.494,1.494,0,1,0,0,2.988H49.506a1.494,1.494,0,0,0,0-2.988Zm0,0" transform="translate(0 -135.059)" fill="#fff"/>
  </g>
</svg>
