<svg xmlns="http://www.w3.org/2000/svg" width="50.955" height="50.952" viewBox="0 0 50.955 50.952">
  <g id="rocket" transform="translate(0 -0.001)">
    <path id="Path_25" data-name="Path 25" d="M48.5.005c-9.947-.178-21.29,5.021-28.47,13.087A26.941,26.941,0,0,0,1.569,20.954a1.062,1.062,0,0,0,.594,1.807l8.182,1.172L9.335,25.064a1.061,1.061,0,0,0,.042,1.459L23.023,40.167a1.064,1.064,0,0,0,1.459.04L25.613,39.2l1.172,8.182a1.057,1.057,0,0,0,.752.82.975.975,0,0,0,.3.047,1.2,1.2,0,0,0,.822-.342A26.884,26.884,0,0,0,36.455,29.51c8.074-7.2,13.316-18.534,13.084-28.468A1.066,1.066,0,0,0,48.5.005ZM38.719,18.332a5.308,5.308,0,1,1,0-7.507A5.291,5.291,0,0,1,38.719,18.332Z" transform="translate(1.407 0)" fill="#fff"/>
    <path id="Path_26" data-name="Path 26" d="M5.783,17.92C3.512,20.191.393,30.454.045,31.615a1.062,1.062,0,0,0,1.017,1.367,1.087,1.087,0,0,0,.306-.045c1.161-.348,11.424-3.467,13.7-5.739a6.562,6.562,0,1,0-9.28-9.28Z" transform="translate(0 17.97)" fill="#fff"/>
  </g>
</svg>
