<svg xmlns="http://www.w3.org/2000/svg" width="50.952" height="50.952" viewBox="0 0 50.952 50.952">
  <g id="Analysis-report-document-develop-infromation" transform="translate(-3.999 -4)">
    <path id="Path_33" data-name="Path 33" d="M28,9.03V25.38H44.35A17.3,17.3,0,0,0,28,9.03Z" transform="translate(-2.164 -0.453)" fill="#fff"/>
    <path id="Path_34" data-name="Path 34" d="M39.116,33H22.229L10.31,44.919A17.254,17.254,0,0,0,39.116,33Z" transform="translate(-0.569 -2.614)" fill="#fff"/>
    <path id="Path_35" data-name="Path 35" d="M20.377,13.03A17.254,17.254,0,0,0,8.458,41.836L20.377,29.917Z" transform="translate(0 -0.814)" fill="#fff"/>
    <path id="Path_36" data-name="Path 36" d="M51.91,12.316h6L51,5.41v6A.91.91,0,0,0,51.91,12.316Z" transform="translate(-4.237 -0.127)" fill="#fff"/>
    <path id="Path_37" data-name="Path 37" d="M48.369,42a6.369,6.369,0,1,0,6.369,6.369A6.369,6.369,0,0,0,48.369,42Zm-1.176,9.742a.91.91,0,0,1-1.287,0l-2.73-2.73,1.287-1.287,2.086,2.086L51.365,45l1.287,1.287Z" transform="translate(-3.426 -3.426)" fill="#fff"/>
    <path id="Path_38" data-name="Path 38" d="M49.476,14.008a2.738,2.738,0,0,1-2.73-2.73V4H24.91a.91.91,0,0,0-.91.91V28.566H41.287a.91.91,0,0,1,.91.91A19.12,19.12,0,0,1,24,48.537v5.5a.91.91,0,0,0,.91.91H55.845a.91.91,0,0,0,.91-.91V14.008ZM26.73,26.746a.91.91,0,0,1-.91-.91V7.639a.91.91,0,0,1,.91-.91A19.128,19.128,0,0,1,45.836,25.836a.91.91,0,0,1-.91.91ZM46.746,53.132a8.189,8.189,0,1,1,8.189-8.189,8.189,8.189,0,0,1-8.189,8.189Zm8.189-22.746H47.656v-1.82h7.279Zm0-5.459H47.656v-1.82h7.279Zm0-5.459H47.656v-1.82h7.279Z" transform="translate(-1.803)" fill="#fff"/>
  </g>
</svg>
